<svg version="1.1" viewBox="0.0 0.0 326.3989501312336 240.0" fill="none" stroke="none" stroke-linecap="square" stroke-miterlimit="10" xmlns:xlink="http://www.w3.org/1999/xlink" xmlns="http://www.w3.org/2000/svg">
  <clipPath id="p.0">
    <path d="m0 0l326.39896 0l0 240.0l-326.39896 0l0 -240.0z" clip-rule="nonzero"/>
  </clipPath>
  <g clip-path="url(#p.0)">
    <path fill="#000000" fill-opacity="0.0" d="m0 0l326.39896 0l0 240.0l-326.39896 0z" fill-rule="evenodd"/>

    <path fill="#4285f4" d="m5.3884516 39.25538l0 0c0 -21.680147 17.57523 -39.25538 39.25538 -39.25538l237.1113 0c10.411163 0 20.395935 4.135823 27.757751 11.497634c7.361786 7.3618116 11.49762 17.34657 11.49762 27.757744l0 157.01682c0 21.680145 -17.575226 39.25537 -39.25537 39.25537l-237.1113 0l0 0c-21.680147 0 -39.25538 -17.575226 -39.25538 -39.25537z" fill-rule="evenodd"/>
    <path fill="#f7f7f7" d="m23.293962 76.96645l0 0c0 -15.884663 12.877066 -28.76173 28.761732 -28.76173l222.28757 0c7.6280823 0 14.943726 3.0302467 20.337616 8.424118c5.39386 5.3938713 8.424103 12.70953 8.424103 20.337612l0 115.043465c0 15.884674 -12.877045 28.761734 -28.761719 28.761734l-222.28757 0c-15.884666 0 -28.761732 -12.87706 -28.761732 -28.761734z" fill-rule="evenodd"/>
    <path fill="#db4437" d="m50.207348 116.60405l0 0c0 -10.312424 8.359871 -18.672295 18.67229 -18.672295l188.63968 0c4.952179 0 9.701569 1.9672546 13.203308 5.468994c3.501709 3.5017319 5.4689636 8.251099 5.4689636 13.2033l0 74.68692c0 10.312408 -8.359863 18.672287 -18.672272 18.672287l-188.63968 0l0 0c-10.31242 0 -18.67229 -8.359879 -18.67229 -18.672287z" fill-rule="evenodd"/>
    <path fill="#f7f7f7" d="m89.24672 152.73248l0 0c0 -5.5606384 4.5077972 -10.068436 10.068443 -10.068436l127.76862 0c2.6703186 0 5.231262 1.0607758 7.119461 2.9489746c1.8881989 1.8881989 2.9489899 4.4491425 2.9489899 7.119461l0 40.272568c0 5.5606384 -4.5077972 10.068436 -10.068451 10.068436l-127.76862 0l0 0c-5.560646 0 -10.068443 -4.5077972 -10.068443 -10.068436z" fill-rule="evenodd"/>

    <path fill="#fafafc" d="m99.7278 30.697506l-1.890625 0l0 -6.578125l-7.15625 0l0 6.578125l-1.875 0l0 -14.21875l1.875 0l0 6.109375l7.15625 0l0 -6.109375l1.890625 0l0 14.21875zm2.5703125 -5.375q0 -1.5625 0.609375 -2.796875q0.609375 -1.25 1.6875 -1.921875q1.09375 -0.671875 2.5 -0.671875q2.15625 0 3.484375 1.5q1.34375 1.484375 1.34375 3.96875l0 0.125q0 1.546875 -0.59375 2.78125q-0.59375 1.21875 -1.703125 1.90625q-1.09375 0.6875 -2.515625 0.6875q-2.140625 0 -3.484375 -1.5q-1.328125 -1.5 -1.328125 -3.953125l0 -0.125zm1.8125 0.203125q0 1.765625 0.8125 2.828125q0.828125 1.0625 2.1875 1.0625q1.375 0 2.1875 -1.078125q0.8125 -1.078125 0.8125 -3.015625q0 -1.75 -0.828125 -2.828125q-0.828125 -1.078125 -2.1875 -1.078125q-1.34375 0 -2.171875 1.0625q-0.8125 1.0625 -0.8125 3.046875zm16.21875 2.375q0 -0.734375 -0.546875 -1.140625q-0.546875 -0.40625 -1.921875 -0.703125q-1.375 -0.296875 -2.1875 -0.703125q-0.796875 -0.40625 -1.1875 -0.96875q-0.375 -0.578125 -0.375 -1.359375q0 -1.296875 1.09375 -2.1875q1.09375 -0.90625 2.8125 -0.90625q1.796875 0 2.90625 0.9375q1.125 0.921875 1.125 2.359375l-1.828125 0q0 -0.734375 -0.625 -1.265625q-0.625 -0.546875 -1.578125 -0.546875q-1.0 0 -1.5625 0.4375q-0.546875 0.421875 -0.546875 1.125q0 0.640625 0.515625 0.984375q0.515625 0.328125 1.875 0.640625q1.359375 0.296875 2.1875 0.71875q0.84375 0.40625 1.25 1.0q0.40625 0.59375 0.40625 1.4375q0 1.421875 -1.140625 2.28125q-1.125 0.859375 -2.9375 0.859375q-1.265625 0 -2.25 -0.453125q-0.96875 -0.453125 -1.53125 -1.25q-0.546875 -0.8125 -0.546875 -1.75l1.8125 0q0.046875 0.90625 0.71875 1.4375q0.6875 0.53125 1.796875 0.53125q1.03125 0 1.640625 -0.40625q0.625 -0.421875 0.625 -1.109375zm6.609375 -10.328125l0 2.5625l1.984375 0l0 1.390625l-1.984375 0l0 6.546875q0 0.640625 0.265625 0.96875q0.265625 0.3125 0.90625 0.3125q0.3125 0 0.859375 -0.125l0 1.46875q-0.71875 0.203125 -1.390625 0.203125q-1.203125 0 -1.828125 -0.734375q-0.609375 -0.734375 -0.609375 -2.09375l0 -6.546875l-1.921875 0l0 -1.390625l1.921875 0l0 -2.5625l1.796875 0zm6.048828 13.125l-1.796875 0l0 -10.5625l1.796875 0l0 10.5625zm-1.953125 -13.375q0 -0.4375 0.265625 -0.734375q0.28125 -0.3125 0.796875 -0.3125q0.53125 0 0.796875 0.3125q0.28125 0.296875 0.28125 0.734375q0 0.4375 -0.28125 0.734375q-0.265625 0.296875 -0.796875 0.296875q-0.515625 0 -0.796875 -0.296875q-0.265625 -0.296875 -0.265625 -0.734375zm6.5566406 2.8125l0.0625 1.328125q1.203125 -1.53125 3.15625 -1.53125q3.359375 0 3.375 3.78125l0 6.984375l-1.796875 0l0 -7.0q-0.015625 -1.140625 -0.53125 -1.6875q-0.5 -0.546875 -1.59375 -0.546875q-0.875 0 -1.546875 0.46875q-0.65625 0.46875 -1.03125 1.234375l0 7.53125l-1.796875 0l0 -10.5625l1.703125 0zm8.894531 5.1875q0 -2.46875 1.140625 -3.921875q1.140625 -1.46875 3.03125 -1.46875q1.9375 0 3.015625 1.375l0.09375 -1.171875l1.640625 0l0 10.3125q0 2.046875 -1.21875 3.21875q-1.203125 1.1875 -3.265625 1.1875q-1.140625 0 -2.234375 -0.484375q-1.09375 -0.484375 -1.671875 -1.34375l0.9375 -1.078125q1.171875 1.4375 2.84375 1.4375q1.328125 0 2.0625 -0.75q0.734375 -0.734375 0.734375 -2.078125l0 -0.921875q-1.078125 1.265625 -2.953125 1.265625q-1.859375 0 -3.015625 -1.5q-1.140625 -1.5 -1.140625 -4.078125zm1.8125 0.203125q0 1.796875 0.734375 2.8125q0.734375 1.015625 2.046875 1.015625q1.71875 0 2.515625 -1.546875l0 -4.828125q-0.828125 -1.515625 -2.484375 -1.515625q-1.328125 0 -2.078125 1.03125q-0.734375 1.03125 -0.734375 3.03125zm16.953125 -0.390625l0 5.5625l-1.875 0l0 -14.21875l5.234375 0q2.34375 0 3.65625 1.1875q1.328125 1.1875 1.328125 3.15625q0 2.078125 -1.296875 3.203125q-1.296875 1.109375 -3.703125 1.109375l-3.34375 0zm0 -1.53125l3.359375 0q1.515625 0 2.3125 -0.703125q0.796875 -0.71875 0.796875 -2.0625q0 -1.265625 -0.796875 -2.015625q-0.796875 -0.765625 -2.203125 -0.796875l-3.46875 0l0 5.578125zm12.4140625 7.09375l-1.796875 0l0 -14.999999l1.796875 0l0 14.999999zm9.416016 0q-0.15625 -0.3125 -0.25 -1.109375q-1.265625 1.3125 -3.015625 1.3125q-1.5625 0 -2.5625 -0.890625q-1.0 -0.890625 -1.0 -2.25q0 -1.640625 1.25 -2.546875q1.265625 -0.921875 3.53125 -0.921875l1.765625 0l0 -0.828125q0 -0.953125 -0.578125 -1.515625q-0.5625 -0.5625 -1.65625 -0.5625q-0.96875 0 -1.625 0.5q-0.65625 0.484375 -0.65625 1.171875l-1.8125 0q0 -0.78125 0.5625 -1.515625q0.5625 -0.75 1.515625 -1.171875q0.96875 -0.4375 2.125 -0.4375q1.828125 0 2.859375 0.921875q1.03125 0.90625 1.078125 2.515625l0 4.859375q0 1.453125 0.359375 2.3125l0 0.15625l-1.890625 0zm-3.0 -1.375q0.859375 0 1.609375 -0.4375q0.765625 -0.4375 1.109375 -1.140625l0 -2.171875l-1.421875 0q-3.3125 0 -3.3125 1.9375q0 0.859375 0.5625 1.34375q0.5625 0.46875 1.453125 0.46875zm9.800781 -11.75l0 2.5625l1.984375 0l0 1.390625l-1.984375 0l0 6.546875q0 0.640625 0.265625 0.96875q0.265625 0.3125 0.90625 0.3125q0.3125 0 0.859375 -0.125l0 1.46875q-0.71875 0.203125 -1.390625 0.203125q-1.203125 0 -1.828125 -0.734375q-0.609375 -0.734375 -0.609375 -2.09375l0 -6.546875l-1.921875 0l0 -1.390625l1.921875 0l0 -2.5625l1.796875 0zm4.970703 13.125l0 -9.171875l-1.65625 0l0 -1.390625l1.65625 0l0 -1.09375q0 -1.6875 0.90625 -2.609375q0.921875 -0.93749905 2.578125 -0.93749905q0.625 0 1.234375 0.15625l-0.09375 1.468749q-0.453125 -0.078125 -0.96875 -0.078125q-0.890625 0 -1.375 0.515625q-0.46875 0.5 -0.46875 1.453125l0 1.125l2.25 0l0 1.390625l-2.25 0l0 9.171875l-1.8125 0zm5.5839844 -5.375q0 -1.5625 0.609375 -2.796875q0.609375 -1.25 1.6875 -1.921875q1.09375 -0.671875 2.5 -0.671875q2.15625 0 3.484375 1.5q1.34375 1.484375 1.34375 3.96875l0 0.125q0 1.546875 -0.59375 2.78125q-0.59375 1.21875 -1.703125 1.90625q-1.09375 0.6875 -2.515625 0.6875q-2.140625 0 -3.484375 -1.5q-1.328125 -1.5 -1.328125 -3.953125l0 -0.125zm1.8125 0.203125q0 1.765625 0.8125 2.828125q0.828125 1.0625 2.1875 1.0625q1.375 0 2.1875 -1.078125q0.8125 -1.078125 0.8125 -3.015625q0 -1.75 -0.828125 -2.828125q-0.828125 -1.078125 -2.1875 -1.078125q-1.34375 0 -2.171875 1.0625q-0.8125 1.0625 -0.8125 3.046875zm15.171875 -3.78125q-0.40625 -0.0625 -0.875 -0.0625q-1.78125 0 -2.421875 1.515625l0 7.5l-1.796875 0l0 -10.5625l1.75 0l0.03125 1.21875q0.890625 -1.421875 2.515625 -1.421875q0.53125 0 0.796875 0.140625l0 1.671875zm3.3613281 -1.609375l0.046875 1.171875q1.171875 -1.375 3.140625 -1.375q2.21875 0 3.015625 1.703125q0.53125 -0.765625 1.375 -1.234375q0.84375 -0.46875 2.0 -0.46875q3.46875 0 3.53125 3.6875l0 7.078125l-1.8125 0l0 -6.96875q0 -1.140625 -0.515625 -1.703125q-0.515625 -0.5625 -1.734375 -0.5625q-1.0 0 -1.671875 0.609375q-0.65625 0.59375 -0.765625 1.609375l0 7.015625l-1.8125 0l0 -6.921875q0 -2.3125 -2.265625 -2.3125q-1.78125 0 -2.421875 1.515625l0 7.71875l-1.8125 0l0 -10.5625l1.703125 0z" fill-rule="nonzero"/>
    <path fill="#6d6d6d" d="m58.95143 75.31312q-0.265625 2.265625 -1.671875 3.5q-1.390625 1.21875 -3.71875 1.21875q-2.515625 0 -4.046875 -1.8125q-1.515625 -1.8125 -1.515625 -4.84375l0 -1.359375q0 -1.984375 0.703125 -3.484375q0.71875 -1.5 2.015625 -2.3125q1.296875 -0.8125 3.015625 -0.8125q2.265625 0 3.625 1.265625q1.375 1.265625 1.59375 3.5l-1.890625 0q-0.234375 -1.6875 -1.0625 -2.453125q-0.8125 -0.765625 -2.265625 -0.765625q-1.796875 0 -2.828125 1.328125q-1.015625 1.328125 -1.015625 3.78125l0 1.375q0 2.3125 0.96875 3.6875q0.96875 1.359375 2.703125 1.359375q1.5625 0 2.390625 -0.703125q0.84375 -0.703125 1.109375 -2.46875l1.890625 0zm1.7988281 -0.859375q0 -1.5625 0.609375 -2.796875q0.609375 -1.25 1.6875 -1.921875q1.09375 -0.671875 2.5 -0.671875q2.15625 0 3.484375 1.5q1.34375 1.484375 1.34375 3.96875l0 0.125q0 1.546875 -0.59375 2.78125q-0.59375 1.21875 -1.703125 1.90625q-1.09375 0.6875 -2.515625 0.6875q-2.140625 0 -3.484375 -1.5q-1.328125 -1.5 -1.328125 -3.953125l0 -0.125zm1.8125 0.203125q0 1.765625 0.8125 2.828125q0.828125 1.0625 2.1875 1.0625q1.375 0 2.1875 -1.078125q0.8125 -1.078125 0.8125 -3.015625q0 -1.75 -0.828125 -2.828125q-0.828125 -1.078125 -2.1875 -1.078125q-1.34375 0 -2.171875 1.0625q-0.8125 1.0625 -0.8125 3.046875zm11.78125 -5.390625l0.0625 1.328125q1.203125 -1.53125 3.15625 -1.53125q3.359375 0 3.375 3.78125l0 6.984375l-1.796875 0l0 -7.0q-0.015625 -1.140625 -0.53125 -1.6875q-0.5 -0.546875 -1.59375 -0.546875q-0.875 0 -1.546875 0.46875q-0.65625 0.46875 -1.03125 1.234375l0 7.53125l-1.796875 0l0 -10.5625l1.703125 0zm11.769531 -2.5625l0 2.5625l1.984375 0l0 1.390625l-1.984375 0l0 6.546875q0 0.640625 0.265625 0.96875q0.265625 0.3125 0.90625 0.3125q0.3125 0 0.859375 -0.125l0 1.46875q-0.71875 0.203125 -1.390625 0.203125q-1.203125 0 -1.828125 -0.734375q-0.609375 -0.734375 -0.609375 -2.09375l0 -6.546875l-1.921875 0l0 -1.390625l1.921875 0l0 -2.5625l1.796875 0zm10.611328 13.125q-0.15625 -0.3125 -0.25 -1.109375q-1.265625 1.3125 -3.015625 1.3125q-1.5625 0 -2.5625 -0.890625q-1.0 -0.890625 -1.0 -2.25q0 -1.640625 1.25 -2.546875q1.265625 -0.921875 3.53125 -0.921875l1.765625 0l0 -0.828125q0 -0.953125 -0.578125 -1.515625q-0.5625 -0.5625 -1.65625 -0.5625q-0.96875 0 -1.625 0.5q-0.65625 0.484375 -0.65625 1.171875l-1.8125 0q0 -0.78125 0.5625 -1.515625q0.5625 -0.75 1.515625 -1.171875q0.96875 -0.4375 2.125 -0.4375q1.828125 0 2.859375 0.921875q1.03125 0.90625 1.078125 2.515625l0 4.859375q0 1.453125 0.359375 2.3125l0 0.15625l-1.890625 0zm-3.0 -1.375q0.859375 0 1.609375 -0.4375q0.765625 -0.4375 1.109375 -1.140625l0 -2.171875l-1.421875 0q-3.3125 0 -3.3125 1.9375q0 0.859375 0.5625 1.34375q0.5625 0.46875 1.453125 0.46875zm9.316406 1.375l-1.796875 0l0 -10.5625l1.796875 0l0 10.5625zm-1.953125 -13.375q0 -0.4375 0.265625 -0.734375q0.28125 -0.3125 0.796875 -0.3125q0.53125 0 0.796875 0.3125q0.28125 0.296875 0.28125 0.734375q0 0.4375 -0.28125 0.734375q-0.265625 0.296875 -0.796875 0.296875q-0.515625 0 -0.796875 -0.296875q-0.265625 -0.296875 -0.265625 -0.734375zm6.5566406 2.8125l0.0625 1.328125q1.203125 -1.53125 3.15625 -1.53125q3.359375 0 3.375 3.78125l0 6.984375l-1.796875 0l0 -7.0q-0.015625 -1.140625 -0.53125 -1.6875q-0.5 -0.546875 -1.59375 -0.546875q-0.875 0 -1.546875 0.46875q-0.65625 0.46875 -1.03125 1.234375l0 7.53125l-1.796875 0l0 -10.5625l1.703125 0zm13.707031 10.765625q-2.140625 0 -3.5 -1.40625q-1.34375 -1.421875 -1.34375 -3.78125l0 -0.34375q0 -1.5625 0.59375 -2.796875q0.609375 -1.234375 1.6875 -1.9375q1.078125 -0.703125 2.34375 -0.703125q2.0625 0 3.203125 1.359375q1.140625 1.359375 1.140625 3.890625l0 0.75l-7.15625 0q0.03125 1.5625 0.90625 2.53125q0.875 0.953125 2.21875 0.953125q0.96875 0 1.625 -0.390625q0.671875 -0.390625 1.171875 -1.03125l1.09375 0.859375q-1.328125 2.046875 -3.984375 2.046875zm-0.21875 -9.484375q-1.09375 0 -1.84375 0.796875q-0.734375 0.796875 -0.90625 2.234375l5.28125 0l0 -0.140625q-0.078125 -1.375 -0.75 -2.125q-0.65625 -0.765625 -1.78125 -0.765625zm11.533203 0.328125q-0.40625 -0.0625 -0.875 -0.0625q-1.78125 0 -2.421875 1.515625l0 7.5l-1.796875 0l0 -10.5625l1.75 0l0.03125 1.21875q0.890625 -1.421875 2.515625 -1.421875q0.53125 0 0.796875 0.140625l0 1.671875zm6.546875 3.1875q0 -2.21875 0.59375 -4.25q0.59375 -2.03125 1.765625 -3.6875q1.171875 -1.65625 2.421875 -2.3437462l0.375 1.1874962q-1.421875 1.09375 -2.34375 3.34375q-0.90625 2.25 -1.0 5.03125l0 0.828125q0 3.765625 1.375 6.546875q0.828125 1.65625 1.96875 2.59375l-0.375 1.109375q-1.296875 -0.71875 -2.46875 -2.421875q-2.3125 -3.328125 -2.3125 -7.9375zm10.3984375 3.3125l2.609375 -8.109375l1.84375 0l-3.78125 10.5625l-1.375 0l-3.828125 -10.5625l1.84375 0l2.6875 8.109375zm8.15625 2.453125l-1.796875 0l0 -10.5625l1.796875 0l0 10.5625zm-1.953125 -13.375q0 -0.4375 0.265625 -0.734375q0.28125 -0.3125 0.796875 -0.3125q0.53125 0 0.796875 0.3125q0.28125 0.296875 0.28125 0.734375q0 0.4375 -0.28125 0.734375q-0.265625 0.296875 -0.796875 0.296875q-0.515625 0 -0.796875 -0.296875q-0.265625 -0.296875 -0.265625 -0.734375zm11.369141 13.375q-0.15625 -0.3125 -0.25 -1.109375q-1.265625 1.3125 -3.015625 1.3125q-1.5625 0 -2.5625 -0.890625q-1.0 -0.890625 -1.0 -2.25q0 -1.640625 1.25 -2.546875q1.265625 -0.921875 3.53125 -0.921875l1.765625 0l0 -0.828125q0 -0.953125 -0.578125 -1.515625q-0.5625 -0.5625 -1.65625 -0.5625q-0.96875 0 -1.625 0.5q-0.65625 0.484375 -0.65625 1.171875l-1.8125 0q0 -0.78125 0.5625 -1.515625q0.5625 -0.75 1.515625 -1.171875q0.96875 -0.4375 2.125 -0.4375q1.828125 0 2.859375 0.921875q1.03125 0.90625 1.078125 2.515625l0 4.859375q0 1.453125 0.359375 2.3125l0 0.15625l-1.890625 0zm-3.0 -1.375q0.859375 0 1.609375 -0.4375q0.765625 -0.4375 1.109375 -1.140625l0 -2.171875l-1.421875 0q-3.3125 0 -3.3125 1.9375q0 0.859375 0.5625 1.34375q0.5625 0.46875 1.453125 0.46875zm12.595703 1.375l0 -14.21875l4.640625 0q2.3125 0 3.484375 0.953125q1.171875 0.953125 1.171875 2.828125q0 1.0 -0.578125 1.765625q-0.5625 0.765625 -1.53125 1.1875q1.140625 0.328125 1.8125 1.234375q0.671875 0.890625 0.671875 2.140625q0 1.921875 -1.25 3.015625q-1.234375 1.09375 -3.5 1.09375l-4.921875 0zm1.875 -6.65625l0 5.125l3.09375 0q1.3125 0 2.0625 -0.671875q0.75 -0.6875 0.75 -1.875q0 -2.578125 -2.78125 -2.578125l-3.125 0zm0 -1.5l2.828125 0q1.234375 0 1.96875 -0.609375q0.734375 -0.625 0.734375 -1.671875q0 -1.171875 -0.6875 -1.703125q-0.671875 -0.53125 -2.078125 -0.53125l-2.765625 0l0 4.515625zm16.810547 7.109375q-1.046875 1.25 -3.09375 1.25q-1.6875 0 -2.578125 -0.984375q-0.875 -0.984375 -0.890625 -2.90625l0 -6.875l1.8125 0l0 6.828125q0 2.390625 1.953125 2.390625q2.0625 0 2.75 -1.53125l0 -7.6875l1.8125 0l0 10.5625l-1.71875 0l-0.046875 -1.046875zm6.4628906 1.046875l-1.796875 0l0 -10.5625l1.796875 0l0 10.5625zm-1.953125 -13.375q0 -0.4375 0.265625 -0.734375q0.28125 -0.3125 0.796875 -0.3125q0.53125 0 0.796875 0.3125q0.28125 0.296875 0.28125 0.734375q0 0.4375 -0.28125 0.734375q-0.265625 0.296875 -0.796875 0.296875q-0.515625 0 -0.796875 -0.296875q-0.265625 -0.296875 -0.265625 -0.734375zm6.8066406 13.375l-1.796875 0l0 -15.0l1.796875 0l0 15.0zm2.4472656 -5.375q0 -2.421875 1.15625 -3.90625q1.15625 -1.484375 3.015625 -1.484375q1.859375 0 2.9375 1.265625l0 -5.5l1.8125 0l0 15.0l-1.65625 0l-0.09375 -1.140625q-1.078125 1.34375 -3.015625 1.34375q-1.828125 0 -3.0 -1.5q-1.15625 -1.515625 -1.15625 -3.9375l0 -0.140625zm1.8125 0.203125q0 1.796875 0.734375 2.8125q0.75 1.015625 2.0625 1.015625q1.71875 0 2.5 -1.53125l0 -4.859375q-0.796875 -1.5 -2.484375 -1.5q-1.328125 0 -2.078125 1.03125q-0.734375 1.03125 -0.734375 3.03125zm18.841797 0q0 2.421875 -1.109375 3.90625q-1.09375 1.46875 -2.984375 1.46875q-1.921875 0 -3.03125 -1.234375l0 5.09375l-1.796875 0l0 -14.625l1.640625 0l0.09375 1.171875q1.09375 -1.375 3.0625 -1.375q1.90625 0 3.015625 1.4375q1.109375 1.4375 1.109375 4.0l0 0.15625zm-1.8125 -0.203125q0 -1.78125 -0.765625 -2.8125q-0.75 -1.046875 -2.078125 -1.046875q-1.640625 0 -2.46875 1.453125l0 5.0625q0.8125 1.4375 2.484375 1.4375q1.296875 0 2.0625 -1.03125q0.765625 -1.03125 0.765625 -3.0625zm10.626953 5.375q-0.15625 -0.3125 -0.25 -1.109375q-1.265625 1.3125 -3.015625 1.3125q-1.5625 0 -2.5625 -0.890625q-1.0 -0.890625 -1.0 -2.25q0 -1.640625 1.25 -2.546875q1.265625 -0.921875 3.53125 -0.921875l1.765625 0l0 -0.828125q0 -0.953125 -0.578125 -1.515625q-0.5625 -0.5625 -1.65625 -0.5625q-0.96875 0 -1.625 0.5q-0.65625 0.484375 -0.65625 1.171875l-1.8125 0q0 -0.78125 0.5625 -1.515625q0.5625 -0.75 1.515625 -1.171875q0.96875 -0.4375 2.125 -0.4375q1.828125 0 2.859375 0.921875q1.03125 0.90625 1.078125 2.515625l0 4.859375q0 1.453125 0.359375 2.3125l0 0.15625l-1.890625 0zm-3.0 -1.375q0.859375 0 1.609375 -0.4375q0.765625 -0.4375 1.109375 -1.140625l0 -2.171875l-1.421875 0q-3.3125 0 -3.3125 1.9375q0 0.859375 0.5625 1.34375q0.5625 0.46875 1.453125 0.46875zm11.597656 0.09375q0.96875 0 1.6875 -0.578125q0.71875 -0.59375 0.796875 -1.46875l1.71875 0q-0.0625 0.90625 -0.640625 1.734375q-0.5625 0.8125 -1.53125 1.3125q-0.953125 0.484375 -2.03125 0.484375q-2.15625 0 -3.4375 -1.4375q-1.265625 -1.453125 -1.265625 -3.953125l0 -0.296875q0 -1.546875 0.5625 -2.75q0.5625 -1.203125 1.625 -1.859375q1.0625 -0.671875 2.5 -0.671875q1.78125 0 2.953125 1.0625q1.1875 1.0625 1.265625 2.765625l-1.71875 0q-0.078125 -1.015625 -0.78125 -1.671875q-0.6875 -0.671875 -1.71875 -0.671875q-1.375 0 -2.140625 1.0q-0.75 0.984375 -0.75 2.859375l0 0.34375q0 1.828125 0.75 2.8125q0.75 0.984375 2.15625 0.984375zm9.17186 -3.609375l-1.1249847 1.171875l0 3.71875l-1.8125 0l0 -15.0l1.8125 0l0 9.078125l0.96873474 -1.171875l3.28125 -3.46875l2.203125 0l-4.109375 4.40625l4.59375 6.15625l-2.125 0l-3.6875 -4.890625zm13.339844 2.09375q0 -0.734375 -0.546875 -1.140625q-0.546875 -0.40625 -1.921875 -0.703125q-1.375 -0.296875 -2.1875 -0.703125q-0.796875 -0.40625 -1.1875 -0.96875q-0.375 -0.578125 -0.375 -1.359375q0 -1.296875 1.09375 -2.1875q1.09375 -0.90625 2.8125 -0.90625q1.796875 0 2.90625 0.9375q1.125 0.921875 1.125 2.359375l-1.828125 0q0 -0.734375 -0.625 -1.265625q-0.625 -0.546875 -1.578125 -0.546875q-1.0 0 -1.5625 0.4375q-0.546875 0.421875 -0.546875 1.125q0 0.640625 0.515625 0.984375q0.515625 0.328125 1.875 0.640625q1.359375 0.296875 2.1875 0.71875q0.84375 0.40625 1.25 1.0q0.40625 0.59375 0.40625 1.4375q0 1.421875 -1.140625 2.28125q-1.125 0.859375 -2.9375 0.859375q-1.265625 0 -2.25 -0.453125q-0.96875 -0.453125 -1.53125 -1.25q-0.546875 -0.8125 -0.546875 -1.75l1.8125 0q0.046875 0.90625 0.71875 1.4375q0.6875 0.53125 1.796875 0.53125q1.03125 0 1.640625 -0.40625q0.625 -0.421875 0.625 -1.109375zm8.328125 -2.875q0 2.171875 -0.578125 4.171875q-0.5625 2.0 -1.734375 3.6875q-1.171875 1.6875 -2.46875 2.40625l-0.375 -1.109375q1.5 -1.15625 2.40625 -3.578125q0.921875 -2.421875 0.9375 -5.390625l0 -0.3125q0 -2.046875 -0.4375 -3.8125q-0.421875 -1.765625 -1.1875 -3.15625q-0.765625 -1.390625 -1.71875 -2.171875l0.375 -1.1093712q1.296875 0.7187462 2.453125 2.3906212q1.171875 1.65625 1.75 3.671875q0.578125 2.015625 0.578125 4.3125z" fill-rule="nonzero"/>
    <path fill="#fafafc" d="m76.70827 120.319435l-5.96875 0l0 6.28125l-1.875 0l0 -14.21875l8.796875 0l0 1.546875l-6.921875 0l0 4.859375l5.96875 0l0 1.53125zm9.230469 5.234375q-1.046875 1.25 -3.09375 1.25q-1.6875 0 -2.578125 -0.984375q-0.875 -0.984375 -0.890625 -2.90625l0 -6.875l1.8125 0l0 6.828125q0 2.390625 1.953125 2.390625q2.0625 0 2.75 -1.53125l0 -7.6875l1.8125 0l0 10.5625l-1.71875 0l-0.046875 -1.046875zm6.2128906 -9.515625l0.0625 1.328125q1.203125 -1.53125 3.15625 -1.53125q3.359375 0 3.375 3.78125l0 6.984375l-1.796875 0l0 -7.0q-0.015625 -1.140625 -0.53125 -1.6875q-0.5 -0.546875 -1.59375 -0.546875q-0.875 0 -1.546875 0.46875q-0.65625 0.46875 -1.03125 1.234375l0 7.53125l-1.796875 0l0 -10.5625l1.703125 0zm13.566406 9.28125q0.96875 0 1.6875 -0.578125q0.71875 -0.59375 0.796875 -1.46875l1.71875 0q-0.0625 0.90625 -0.640625 1.734375q-0.5625 0.8125 -1.53125 1.3125q-0.953125 0.484375 -2.03125 0.484375q-2.15625 0 -3.4375 -1.4375q-1.265625 -1.453125 -1.265625 -3.953125l0 -0.296875q0 -1.546875 0.5625 -2.75q0.5625 -1.203125 1.625 -1.859375q1.0625 -0.671875 2.5 -0.671875q1.78125 0 2.953125 1.0625q1.1875 1.0625 1.265625 2.765625l-1.71875 0q-0.078125 -1.015625 -0.78125 -1.671875q-0.6875 -0.671875 -1.71875 -0.671875q-1.375 0 -2.140625 1.0q-0.75 0.984375 -0.75 2.859375l0 0.34375q0 1.828125 0.75 2.8125q0.75 0.984375 2.15625 0.984375zm8.671875 -11.84375l0 2.5625l1.984375 0l0 1.390625l-1.984375 0l0 6.546875q0 0.640625 0.265625 0.96875q0.265625 0.3125 0.90625 0.3125q0.3125 0 0.859375 -0.125l0 1.46875q-0.71875 0.203125 -1.390625 0.203125q-1.203125 0 -1.828125 -0.734375q-0.609375 -0.734375 -0.609375 -2.09375l0 -6.546875l-1.921875 0l0 -1.390625l1.921875 0l0 -2.5625l1.796875 0zm6.048828 13.125l-1.796875 0l0 -10.5625l1.796875 0l0 10.5625zm-1.953125 -13.375q0 -0.4375 0.265625 -0.734375q0.28125 -0.3125 0.796875 -0.3125q0.53125 0 0.796875 0.3125q0.28125 0.296875 0.28125 0.734375q0 0.4375 -0.28125 0.734375q-0.265625 0.296875 -0.796875 0.296875q-0.515625 0 -0.796875 -0.296875q-0.265625 -0.296875 -0.265625 -0.734375zm4.3691406 8.0q0 -1.5625 0.609375 -2.796875q0.609375 -1.25 1.6875 -1.921875q1.09375 -0.671875 2.5 -0.671875q2.15625 0 3.484375 1.5q1.34375 1.484375 1.34375 3.96875l0 0.125q0 1.546875 -0.59375 2.78125q-0.59375 1.21875 -1.703125 1.90625q-1.09375 0.6875 -2.515625 0.6875q-2.140625 0 -3.484375 -1.5q-1.328125 -1.5 -1.328125 -3.953125l0 -0.125zm1.8125 0.203125q0 1.765625 0.8125 2.828125q0.828125 1.0625 2.1875 1.0625q1.375 0 2.1875 -1.078125q0.8125 -1.078125 0.8125 -3.015625q0 -1.75 -0.828125 -2.828125q-0.828125 -1.078125 -2.1875 -1.078125q-1.34375 0 -2.171875 1.0625q-0.8125 1.0625 -0.8125 3.046875zm11.78125 -5.390625l0.0625 1.328125q1.203125 -1.53125 3.15625 -1.53125q3.359375 0 3.375 3.78125l0 6.984375l-1.796875 0l0 -7.0q-0.015625 -1.140625 -0.53125 -1.6875q-0.5 -0.546875 -1.59375 -0.546875q-0.875 0 -1.546875 0.46875q-0.65625 0.46875 -1.03125 1.234375l0 7.53125l-1.796875 0l0 -10.5625l1.703125 0zm15.472656 7.765625q0 -0.734375 -0.546875 -1.140625q-0.546875 -0.40625 -1.921875 -0.703125q-1.375 -0.296875 -2.1875 -0.703125q-0.796875 -0.40625 -1.1875 -0.96875q-0.375 -0.578125 -0.375 -1.359375q0 -1.296875 1.09375 -2.1875q1.09375 -0.90625 2.8125 -0.90625q1.796875 0 2.90625 0.9375q1.125 0.921875 1.125 2.359375l-1.828125 0q0 -0.734375 -0.625 -1.265625q-0.625 -0.546875 -1.578125 -0.546875q-1.0 0 -1.5625 0.4375q-0.546875 0.421875 -0.546875 1.125q0 0.640625 0.515625 0.984375q0.515625 0.328125 1.875 0.640625q1.359375 0.296875 2.1875 0.71875q0.84375 0.40625 1.25 1.0q0.40625 0.59375 0.40625 1.4375q0 1.421875 -1.140625 2.28125q-1.125 0.859375 -2.9375 0.859375q-1.265625 0 -2.25 -0.453125q-0.96875 -0.453125 -1.53125 -1.25q-0.546875 -0.8125 -0.546875 -1.75l1.8125 0q0.046875 0.90625 0.71875 1.4375q0.6875 0.53125 1.796875 0.53125q1.03125 0 1.640625 -0.40625q0.625 -0.421875 0.625 -1.109375zm17.248047 -3.484375l-5.96875 0l0 6.28125l-1.875 0l0 -14.21875l8.796875 0l0 1.546875l-6.921875 0l0 4.859375l5.96875 0l0 1.53125zm7.7695312 -2.671875q-0.40625 -0.0625 -0.875 -0.0625q-1.78125 0 -2.421875 1.515625l0 7.5l-1.796875 0l0 -10.5625l1.75 0l0.03125 1.21875q0.890625 -1.421875 2.515625 -1.421875q0.53125 0 0.796875 0.140625l0 1.671875zm7.798813 8.953125q-0.15625 -0.3125 -0.25 -1.109375q-1.2656097 1.3125 -3.0156097 1.3125q-1.5625 0 -2.5625 -0.890625q-1.0 -0.890625 -1.0 -2.25q0 -1.640625 1.25 -2.546875q1.265625 -0.921875 3.53125 -0.921875l1.7656097 0l0 -0.828125q0 -0.953125 -0.578125 -1.515625q-0.56248474 -0.5625 -1.6562347 -0.5625q-0.96875 0 -1.625 0.5q-0.65625 0.484375 -0.65625 1.171875l-1.8125 0q0 -0.78125 0.5625 -1.515625q0.5625 -0.75 1.515625 -1.171875q0.96875 -0.4375 2.125 -0.4375q1.8281097 0 2.8593597 0.921875q1.03125 0.90625 1.078125 2.515625l0 4.859375q0 1.453125 0.359375 2.3125l0 0.15625l-1.890625 0zm-2.9999847 -1.375q0.859375 0 1.609375 -0.4375q0.76560974 -0.4375 1.1093597 -1.140625l0 -2.171875l-1.4218597 0q-3.3125 0 -3.3125 1.9375q0 0.859375 0.5625 1.34375q0.5625 0.46875 1.453125 0.46875zm9.050766 -9.1875l0.046875 1.171875q1.171875 -1.375 3.140625 -1.375q2.21875 0 3.015625 1.703125q0.53125 -0.765625 1.375 -1.234375q0.84375 -0.46875 2.0 -0.46875q3.46875 0 3.53125 3.6875l0 7.078125l-1.8125 0l0 -6.96875q0 -1.140625 -0.515625 -1.703125q-0.515625 -0.5625 -1.734375 -0.5625q-1.0 0 -1.671875 0.609375q-0.65625 0.59375 -0.765625 1.609375l0 7.015625l-1.8125 0l0 -6.921875q0 -2.3125 -2.265625 -2.3125q-1.78125 0 -2.421875 1.515625l0 7.71875l-1.8125 0l0 -10.5625l1.703125 0zm20.216797 10.765625q-2.140625 0 -3.5 -1.40625q-1.34375 -1.421875 -1.34375 -3.78125l0 -0.34375q0 -1.5625 0.59375 -2.796875q0.609375 -1.234375 1.6875 -1.9375q1.078125 -0.703125 2.34375 -0.703125q2.0625 0 3.203125 1.359375q1.140625 1.359375 1.140625 3.890625l0 0.75l-7.15625 0q0.03125 1.5625 0.90625 2.53125q0.875 0.953125 2.21875 0.953125q0.96875 0 1.625 -0.390625q0.671875 -0.390625 1.171875 -1.03125l1.09375 0.859375q-1.328125 2.046875 -3.984375 2.046875zm-0.21875 -9.484375q-1.09375 0 -1.84375 0.796875q-0.734375 0.796875 -0.90625 2.234375l5.28125 0l0 -0.140625q-0.078125 -1.375 -0.75 -2.125q-0.65625 -0.765625 -1.78125 -0.765625zm15.783203 6.796875l2.03125 -8.078125l1.8125 0l-3.078125 10.5625l-1.46875 0l-2.5625 -8.015625l-2.5 8.015625l-1.46875 0l-3.0625 -10.5625l1.796875 0l2.078125 7.90625l2.46875 -7.90625l1.453125 0l2.5 8.078125zm5.201172 -2.890625q0 -1.5625 0.609375 -2.796875q0.609375 -1.25 1.6875 -1.921875q1.09375 -0.671875 2.5 -0.671875q2.15625 0 3.484375 1.5q1.34375 1.484375 1.34375 3.96875l0 0.125q0 1.546875 -0.59375 2.78125q-0.59375 1.21875 -1.703125 1.90625q-1.09375 0.6875 -2.515625 0.6875q-2.140625 0 -3.484375 -1.5q-1.328125 -1.5 -1.328125 -3.953125l0 -0.125zm1.8125 0.203125q0 1.765625 0.8125 2.828125q0.828125 1.0625 2.1875 1.0625q1.375 0 2.1875 -1.078125q0.8125 -1.078125 0.8125 -3.015625q0 -1.75 -0.828125 -2.828125q-0.828125 -1.078125 -2.1875 -1.078125q-1.34375 0 -2.171875 1.0625q-0.8125 1.0625 -0.8125 3.046875zm15.171875 -3.78125q-0.40625 -0.0625 -0.875 -0.0625q-1.78125 0 -2.421875 1.515625l0 7.5l-1.796875 0l0 -10.5625l1.75 0l0.03125 1.21875q0.890625 -1.421875 2.515625 -1.421875q0.53125 0 0.796875 0.140625l0 1.671875zm4.611328 4.0625l-1.125 1.171875l0 3.71875l-1.8125 0l0 -15.0l1.8125 0l0 9.078125l0.96875 -1.171875l3.28125 -3.46875l2.203125 0l-4.109375 4.40625l4.59375 6.15625l-2.125 0l-3.6875 -4.890625z" fill-rule="nonzero"/>
    <path fill="#6d6d6d" d="m107.82155 172.99065l3.71875 -7.140625l2.125 0l-4.90625 8.921875l0 5.296875l-1.875 0l0 -5.296875l-4.90625 -8.921875l2.15625 0l3.6875 7.140625zm6.283203 1.703125q0 -1.5625 0.609375 -2.796875q0.609375 -1.25 1.6875 -1.921875q1.09375 -0.671875 2.5 -0.671875q2.15625 0 3.484375 1.5q1.34375 1.484375 1.34375 3.96875l0 0.125q0 1.546875 -0.59375 2.78125q-0.59375 1.21875 -1.703125 1.90625q-1.09375 0.6875 -2.515625 0.6875q-2.140625 0 -3.484375 -1.5q-1.328125 -1.5 -1.328125 -3.953125l0 -0.125zm1.8125 0.203125q0 1.765625 0.8125 2.828125q0.828125 1.0625 2.1875 1.0625q1.375 0 2.1875 -1.078125q0.8125 -1.078125 0.8125 -3.015625q0 -1.75 -0.828125 -2.828125q-0.828125 -1.078125 -2.1875 -1.078125q-1.34375 0 -2.171875 1.0625q-0.8125 1.0625 -0.8125 3.046875zm16.59375 4.125q-1.046875 1.25 -3.09375 1.25q-1.6875 0 -2.578125 -0.984375q-0.875 -0.984375 -0.890625 -2.90625l0 -6.875l1.8125 0l0 6.828125q0 2.390625 1.953125 2.390625q2.0625 0 2.75 -1.53125l0 -7.6875l1.8125 0l0 10.5625l-1.71875 0l-0.046875 -1.046875zm9.603516 -7.90625q-0.40625 -0.0625 -0.875 -0.0625q-1.78125 0 -2.421875 1.515625l0 7.5l-1.796875 0l0 -10.5625l1.75 0l0.03125 1.21875q0.890625 -1.421875 2.515625 -1.421875q0.53125 0 0.796875 0.140625l0 1.671875zm14.75 2.671875l-5.96875 0l0 6.28125l-1.875 0l0 -14.21875l8.796875 0l0 1.546875l-6.921875 0l0 4.859375l5.96875 0l0 1.53125zm9.230469 5.234375q-1.046875 1.25 -3.09375 1.25q-1.6875 0 -2.578125 -0.984375q-0.875 -0.984375 -0.890625 -2.90625l0 -6.875l1.8125 0l0 6.828125q0 2.390625 1.953125 2.390625q2.0625 0 2.75 -1.53125l0 -7.6875l1.8125 0l0 10.5625l-1.71875 0l-0.046875 -1.046875zm6.2128906 -9.515625l0.0625 1.328125q1.203125 -1.53125 3.15625 -1.53125q3.359375 0 3.375 3.78125l0 6.984375l-1.796875 0l0 -7.0q-0.015625 -1.140625 -0.53125 -1.6875q-0.5 -0.546875 -1.59375 -0.546875q-0.875 0 -1.546875 0.46875q-0.65625 0.46875 -1.03125 1.234375l0 7.53125l-1.796875 0l0 -10.5625l1.703125 0zm13.566406 9.28125q0.96875 0 1.6875 -0.578125q0.71875 -0.59375 0.796875 -1.46875l1.71875 0q-0.0625 0.90625 -0.640625 1.734375q-0.5625 0.8125 -1.53125 1.3125q-0.953125 0.484375 -2.03125 0.484375q-2.15625 0 -3.4375 -1.4375q-1.265625 -1.453125 -1.265625 -3.953125l0 -0.296875q0 -1.546875 0.5625 -2.75q0.5625 -1.203125 1.625 -1.859375q1.0625 -0.671875 2.5 -0.671875q1.78125 0 2.953125 1.0625q1.1875 1.0625 1.265625 2.765625l-1.71875 0q-0.078125 -1.015625 -0.78125 -1.671875q-0.6875 -0.671875 -1.71875 -0.671875q-1.375 0 -2.140625 1.0q-0.75 0.984375 -0.75 2.859375l0 0.34375q0 1.828125 0.75 2.8125q0.75 0.984375 2.15625 0.984375zm8.671875 -11.84375l0 2.5625l1.984375 0l0 1.390625l-1.984375 0l0 6.546875q0 0.640625 0.265625 0.96875q0.265625 0.3125 0.90625 0.3125q0.3125 0 0.859375 -0.125l0 1.46875q-0.71875 0.203125 -1.390625 0.203125q-1.203125 0 -1.828125 -0.734375q-0.609375 -0.734375 -0.609375 -2.09375l0 -6.546875l-1.921875 0l0 -1.390625l1.921875 0l0 -2.5625l1.796875 0zm6.048828 13.125l-1.796875 0l0 -10.5625l1.796875 0l0 10.5625zm-1.953125 -13.375q0 -0.4375 0.265625 -0.734375q0.28125 -0.3125 0.796875 -0.3125q0.53125 0 0.796875 0.3125q0.28125 0.296875 0.28125 0.734375q0 0.4375 -0.28125 0.734375q-0.265625 0.296875 -0.796875 0.296875q-0.515625 0 -0.796875 -0.296875q-0.265625 -0.296875 -0.265625 -0.734375zm4.3691406 8.0q0 -1.5625 0.609375 -2.796875q0.609375 -1.25 1.6875 -1.921875q1.09375 -0.671875 2.5 -0.671875q2.15625 0 3.484375 1.5q1.34375 1.484375 1.34375 3.96875l0 0.125q0 1.546875 -0.59375 2.78125q-0.59375 1.21875 -1.703125 1.90625q-1.09375 0.6875 -2.515625 0.6875q-2.140625 0 -3.484375 -1.5q-1.328125 -1.5 -1.328125 -3.953125l0 -0.125zm1.8125 0.203125q0 1.765625 0.8125 2.828125q0.828125 1.0625 2.1875 1.0625q1.375 0 2.1875 -1.078125q0.8125 -1.078125 0.8125 -3.015625q0 -1.75 -0.828125 -2.828125q-0.828125 -1.078125 -2.1875 -1.078125q-1.34375 0 -2.171875 1.0625q-0.8125 1.0625 -0.8125 3.046875zm11.78125 -5.390625l0.0625 1.328125q1.203125 -1.53125 3.15625 -1.53125q3.359375 0 3.375 3.78125l0 6.984375l-1.796875 0l0 -7.0q-0.015625 -1.140625 -0.53125 -1.6875q-0.5 -0.546875 -1.59375 -0.546875q-0.875 0 -1.546875 0.46875q-0.65625 0.46875 -1.03125 1.234375l0 7.53125l-1.796875 0l0 -10.5625l1.703125 0z" fill-rule="nonzero"/>
  </g>
</svg>
